%TF.GenerationSoftware,KiCad,Pcbnew,10.0.5*%
%TF.CreationDate,2026-09-13T20:11:01+02:00*%
%TF.ProjectId,USBPW,55534250-572e-46b6-9963-61645f706362,rev?*%
%TF.SameCoordinates,Original*%
%TF.FileFunction,Copper,L1,Top*%
%TF.FilePolarity,Positive*%
%FSLAX46Y46*%
G04 Gerber Fmt 4.6, Leading zero omitted, Abs format (unit mm)*
G04 Created by KiCad (PCBNEW 10.0.5) date 2026-09-13 20:11:01*
%MOMM*%
%LPD*%
G01*
G04 APERTURE LIST*
G04 Aperture macros list*
%AMRoundRect*
0 Rectangle with rounded corners*
0 $1 Rounding radius*
0 $2 $3 $4 $5 $6 $7 $8 $9 X,Y pos of 4 corners*
0 Add a 4 corners polygon primitive as box body*
4,1,4,$2,$3,$4,$5,$6,$7,$8,$9,$2,$3,0*
0 Add four circle primitives for the rounded corners*
1,1,$1+$1,$2,$3*
1,1,$1+$1,$4,$5*
1,1,$1+$1,$6,$7*
1,1,$1+$1,$8,$9*
0 Add four rect primitives between the rounded corners*
20,1,$1+$1,$2,$3,$4,$5,0*
20,1,$1+$1,$4,$5,$6,$7,0*
20,1,$1+$1,$6,$7,$8,$9,0*
20,1,$1+$1,$8,$9,$2,$3,0*%
G04 Aperture macros list end*
%TA.AperFunction,SMDPad,CuDef*%
%ADD10RoundRect,0.250000X0.262500X0.450000X-0.262500X0.450000X-0.262500X-0.450000X0.262500X-0.450000X0*%
%TD*%
%TA.AperFunction,SMDPad,CuDef*%
%ADD11C,1.000000*%
%TD*%
%TA.AperFunction,SMDPad,CuDef*%
%ADD12RoundRect,0.250000X-0.475000X0.250000X-0.475000X-0.250000X0.475000X-0.250000X0.475000X0.250000X0*%
%TD*%
%TA.AperFunction,SMDPad,CuDef*%
%ADD13RoundRect,0.300000X-3.200000X-0.700000X3.200000X-0.700000X3.200000X0.700000X-3.200000X0.700000X0*%
%TD*%
%TA.AperFunction,SMDPad,CuDef*%
%ADD14RoundRect,0.225000X-2.775000X-0.525000X2.775000X-0.525000X2.775000X0.525000X-2.775000X0.525000X0*%
%TD*%
%TA.AperFunction,SMDPad,CuDef*%
%ADD15RoundRect,0.243750X-0.243750X-0.456250X0.243750X-0.456250X0.243750X0.456250X-0.243750X0.456250X0*%
%TD*%
%TA.AperFunction,SMDPad,CuDef*%
%ADD16RoundRect,0.075000X0.075000X-0.650000X0.075000X0.650000X-0.075000X0.650000X-0.075000X-0.650000X0*%
%TD*%
%TA.AperFunction,SMDPad,CuDef*%
%ADD17RoundRect,0.250000X0.250000X0.475000X-0.250000X0.475000X-0.250000X-0.475000X0.250000X-0.475000X0*%
%TD*%
%TA.AperFunction,SMDPad,CuDef*%
%ADD18R,1.100000X1.800000*%
%TD*%
%TA.AperFunction,ViaPad*%
%ADD19C,0.600000*%
%TD*%
%TA.AperFunction,Conductor*%
%ADD20C,0.200000*%
%TD*%
G04 APERTURE END LIST*
D10*
%TO.P,R3,1*%
%TO.N,Net-(U1-V33)*%
X118006500Y-94488000D03*
%TO.P,R3,2*%
%TO.N,Net-(U1-P3.6{slash}UDP)*%
X116181500Y-94488000D03*
%TD*%
D11*
%TO.P,TP1,1,1_1*%
%TO.N,Net-(U1-P3.6{slash}UDP)*%
X113792000Y-93726000D03*
%TD*%
D10*
%TO.P,R2,1*%
%TO.N,Net-(D2-K)*%
X121562500Y-89916000D03*
%TO.P,R2,2*%
%TO.N,Net-(U1-GND)*%
X119737500Y-89916000D03*
%TD*%
%TO.P,R1,1*%
%TO.N,Net-(D1-K)*%
X121562500Y-91948000D03*
%TO.P,R1,2*%
%TO.N,Net-(U1-GND)*%
X119737500Y-91948000D03*
%TD*%
D12*
%TO.P,C1,1*%
%TO.N,Net-(U1-GND)*%
X119888000Y-86172000D03*
%TO.P,C1,2*%
%TO.N,Net-(U1-V33)*%
X119888000Y-88072000D03*
%TD*%
D13*
%TO.P,USB1,1,VCC_1*%
%TO.N,Net-(D1-A)*%
X105683000Y-86166000D03*
D14*
%TO.P,USB1,2,D+_2*%
%TO.N,Net-(U1-P3.6{slash}UDP)*%
X105683000Y-88916000D03*
%TO.P,USB1,3,D-_3*%
%TO.N,Net-(U1-P3.7{slash}UDM)*%
X105683000Y-90916000D03*
D13*
%TO.P,USB1,4,GND_4*%
%TO.N,Net-(U1-GND)*%
X105683000Y-93666000D03*
%TD*%
D15*
%TO.P,D2,1,K_1*%
%TO.N,Net-(D2-K)*%
X123268500Y-87122000D03*
%TO.P,D2,2,A_2*%
%TO.N,Net-(D2-A)*%
X125143500Y-87122000D03*
%TD*%
%TO.P,D1,1,K_1*%
%TO.N,Net-(D1-K)*%
X123268500Y-91948000D03*
%TO.P,D1,2,A_2*%
%TO.N,Net-(D1-A)*%
X125143500Y-91948000D03*
%TD*%
D16*
%TO.P,U1,1,P1.4_1*%
%TO.N,Net-(D2-A)*%
X116094000Y-92320000D03*
%TO.P,U1,2,P1.5_2*%
%TO.N,Net-(U1-P1.5)*%
X116594000Y-92320000D03*
%TO.P,U1,3,P1.6_3*%
%TO.N,unconnected-(U1-P1.6-Pad3)*%
X117094000Y-92320000D03*
%TO.P,U1,4,P1.7_4*%
%TO.N,unconnected-(U1-P1.7-Pad4)*%
X117594000Y-92320000D03*
%TO.P,U1,5,RST_5*%
%TO.N,unconnected-(U1-RST-Pad5)*%
X118094000Y-92320000D03*
%TO.P,U1,6,P3.6/UDP_6*%
%TO.N,Net-(U1-P3.6{slash}UDP)*%
X118094000Y-88020000D03*
%TO.P,U1,7,P3.7/UDM_7*%
%TO.N,Net-(U1-P3.7{slash}UDM)*%
X117594000Y-88020000D03*
%TO.P,U1,8,GND_8*%
%TO.N,Net-(U1-GND)*%
X117094000Y-88020000D03*
%TO.P,U1,9,VDD_9*%
%TO.N,Net-(D1-A)*%
X116594000Y-88020000D03*
%TO.P,U1,10,V33_10*%
%TO.N,Net-(U1-V33)*%
X116094000Y-88020000D03*
%TD*%
D17*
%TO.P,C2,1*%
%TO.N,Net-(U1-GND)*%
X118044000Y-85852000D03*
%TO.P,C2,2*%
%TO.N,Net-(D1-A)*%
X116144000Y-85852000D03*
%TD*%
D11*
%TO.P,TP2,1,1_1*%
%TO.N,Net-(U1-V33)*%
X111760000Y-93726000D03*
%TD*%
D18*
%TO.P,SW1,1,1_1*%
%TO.N,Net-(U1-P1.5)*%
X126928000Y-92762000D03*
X126928000Y-86562000D03*
%TO.P,SW1,2,2_2*%
%TO.N,Net-(U1-GND)*%
X130628000Y-92762000D03*
X130628000Y-86562000D03*
%TD*%
D19*
%TO.N,Net-(U1-V33)*%
X110490000Y-93980000D03*
X110744000Y-89066000D03*
%TO.N,Net-(U1-GND)*%
X114046000Y-89066000D03*
X118493812Y-89791812D03*
%TO.N,Net-(U1-P3.6{slash}UDP)*%
X114808000Y-90316000D03*
X114554000Y-91694000D03*
%TO.N,Net-(U1-V33)*%
X114554000Y-95212000D03*
X117194000Y-94096936D03*
X121920000Y-88392000D03*
X120396000Y-94488000D03*
%TO.N,Net-(D2-A)*%
X115062000Y-93472000D03*
X125222000Y-90170000D03*
%TO.N,Net-(D1-A)*%
X124206000Y-90424000D03*
X115062000Y-87884000D03*
%TO.N,Net-(U1-GND)*%
X114046000Y-89066000D03*
X111506000Y-91694000D03*
%TD*%
%TO.N,Net-(U1-V33)*%
D20*
X110490000Y-93980000D02*
X111506000Y-93980000D01*
X111506000Y-93980000D02*
X111760000Y-93726000D01*
X111344000Y-88466000D02*
X110744000Y-89066000D01*
X114294529Y-88466000D02*
X111344000Y-88466000D01*
X114474529Y-88646000D02*
X114294529Y-88466000D01*
X115468000Y-88646000D02*
X114474529Y-88646000D01*
X116094000Y-88020000D02*
X115468000Y-88646000D01*
%TO.N,Net-(U1-GND)*%
X118618000Y-89916000D02*
X118493812Y-89791812D01*
X119737500Y-89916000D02*
X118618000Y-89916000D01*
%TO.N,Net-(U1-P3.6{slash}UDP)*%
X114808000Y-90316000D02*
X115458000Y-89666000D01*
X115458000Y-89666000D02*
X117205410Y-89666000D01*
X114554000Y-92964000D02*
X114554000Y-91694000D01*
X113792000Y-93726000D02*
X114554000Y-92964000D01*
X114554000Y-94488000D02*
X116181500Y-94488000D01*
X113792000Y-93726000D02*
X114554000Y-94488000D01*
%TO.N,Net-(U1-V33)*%
X113246000Y-95212000D02*
X111760000Y-93726000D01*
X114554000Y-95212000D02*
X113246000Y-95212000D01*
X117585064Y-94488000D02*
X117194000Y-94096936D01*
X118006500Y-94488000D02*
X117585064Y-94488000D01*
X120396000Y-94488000D02*
X118006500Y-94488000D01*
X120208000Y-88392000D02*
X121920000Y-88392000D01*
X119888000Y-88072000D02*
X120208000Y-88392000D01*
%TO.N,Net-(D2-K)*%
X123268500Y-88210000D02*
X121562500Y-89916000D01*
X123268500Y-87122000D02*
X123268500Y-88210000D01*
%TO.N,Net-(D2-A)*%
X115062000Y-93352000D02*
X116094000Y-92320000D01*
X115062000Y-93472000D02*
X115062000Y-93352000D01*
X125143500Y-90091500D02*
X125222000Y-90170000D01*
X125143500Y-87122000D02*
X125143500Y-90091500D01*
%TO.N,Net-(U1-GND)*%
X119737500Y-91948000D02*
X119737500Y-89916000D01*
%TO.N,Net-(D1-K)*%
X123268500Y-91948000D02*
X121562500Y-91948000D01*
%TO.N,Net-(D1-A)*%
X115062000Y-86934000D02*
X116144000Y-85852000D01*
X115062000Y-87884000D02*
X115062000Y-86934000D01*
X125143500Y-91361500D02*
X124206000Y-90424000D01*
X125143500Y-91948000D02*
X125143500Y-91361500D01*
%TO.N,Net-(U1-P1.5)*%
X116594000Y-93210000D02*
X116594000Y-92320000D01*
X116729000Y-93345000D02*
X116594000Y-93210000D01*
X126345000Y-93345000D02*
X116729000Y-93345000D01*
X126928000Y-92762000D02*
X126345000Y-93345000D01*
%TO.N,Net-(U1-GND)*%
X130628000Y-86562000D02*
X130628000Y-92762000D01*
%TO.N,Net-(U1-P1.5)*%
X126928000Y-86562000D02*
X126928000Y-92762000D01*
%TO.N,Net-(U1-GND)*%
X130628000Y-85462000D02*
X130628000Y-86562000D01*
X120698000Y-85362000D02*
X130528000Y-85362000D01*
X130528000Y-85362000D02*
X130628000Y-85462000D01*
X119888000Y-86172000D02*
X120698000Y-85362000D01*
X119568000Y-85852000D02*
X119888000Y-86172000D01*
X118044000Y-85852000D02*
X119568000Y-85852000D01*
X117094000Y-86802000D02*
X117094000Y-88020000D01*
X118044000Y-85852000D02*
X117094000Y-86802000D01*
%TO.N,Net-(D1-A)*%
X116594000Y-86302000D02*
X116594000Y-88020000D01*
X116144000Y-85852000D02*
X116594000Y-86302000D01*
X105683000Y-86166000D02*
X115830000Y-86166000D01*
X115830000Y-86166000D02*
X116144000Y-85852000D01*
%TO.N,Net-(U1-GND)*%
X117094000Y-88777410D02*
X117094000Y-88020000D01*
X116805410Y-89066000D02*
X117094000Y-88777410D01*
X114046000Y-89066000D02*
X116805410Y-89066000D01*
X109534000Y-93666000D02*
X111506000Y-91694000D01*
X105683000Y-93666000D02*
X109534000Y-93666000D01*
%TO.N,Net-(U1-P3.7{slash}UDM)*%
X117594000Y-87262590D02*
X117594000Y-88020000D01*
X118326410Y-86995000D02*
X117861590Y-86995000D01*
X118544000Y-87212590D02*
X118326410Y-86995000D01*
X118544000Y-88893095D02*
X118544000Y-87212590D01*
X117861590Y-86995000D02*
X117594000Y-87262590D01*
X116521095Y-90916000D02*
X118544000Y-88893095D01*
X105683000Y-90916000D02*
X116521095Y-90916000D01*
%TO.N,Net-(U1-P3.6{slash}UDP)*%
X118094000Y-88777410D02*
X118094000Y-88020000D01*
X106433000Y-89666000D02*
X115458000Y-89666000D01*
X117205410Y-89666000D02*
X118094000Y-88777410D01*
X105683000Y-88916000D02*
X106433000Y-89666000D01*
%TD*%
M02*
