%TF.GenerationSoftware,KiCad,Pcbnew,10.0.5*%
%TF.CreationDate,2026-09-13T20:11:02+02:00*%
%TF.ProjectId,USBPW,55534250-572e-46b6-9963-61645f706362,rev?*%
%TF.SameCoordinates,Original*%
%TF.FileFunction,Legend,Top*%
%TF.FilePolarity,Positive*%
%FSLAX46Y46*%
G04 Gerber Fmt 4.6, Leading zero omitted, Abs format (unit mm)*
G04 Created by KiCad (PCBNEW 10.0.5) date 2026-09-13 20:11:02*
%MOMM*%
%LPD*%
G01*
G04 APERTURE LIST*
%ADD10C,0.160000*%
%ADD11C,0.200000*%
%ADD12C,0.120000*%
%ADD13C,0.100000*%
G04 APERTURE END LIST*
D10*
X122104381Y-94180299D02*
X122104381Y-93180299D01*
X122104381Y-93180299D02*
X122409143Y-93180299D01*
X122409143Y-93180299D02*
X122485333Y-93227918D01*
X122485333Y-93227918D02*
X122523428Y-93275537D01*
X122523428Y-93275537D02*
X122561524Y-93370775D01*
X122561524Y-93370775D02*
X122561524Y-93513632D01*
X122561524Y-93513632D02*
X122523428Y-93608870D01*
X122523428Y-93608870D02*
X122485333Y-93656489D01*
X122485333Y-93656489D02*
X122409143Y-93704108D01*
X122409143Y-93704108D02*
X122104381Y-93704108D01*
X123056762Y-93180299D02*
X123209143Y-93180299D01*
X123209143Y-93180299D02*
X123285333Y-93227918D01*
X123285333Y-93227918D02*
X123361524Y-93323156D01*
X123361524Y-93323156D02*
X123399619Y-93513632D01*
X123399619Y-93513632D02*
X123399619Y-93846965D01*
X123399619Y-93846965D02*
X123361524Y-94037441D01*
X123361524Y-94037441D02*
X123285333Y-94132680D01*
X123285333Y-94132680D02*
X123209143Y-94180299D01*
X123209143Y-94180299D02*
X123056762Y-94180299D01*
X123056762Y-94180299D02*
X122980571Y-94132680D01*
X122980571Y-94132680D02*
X122904381Y-94037441D01*
X122904381Y-94037441D02*
X122866285Y-93846965D01*
X122866285Y-93846965D02*
X122866285Y-93513632D01*
X122866285Y-93513632D02*
X122904381Y-93323156D01*
X122904381Y-93323156D02*
X122980571Y-93227918D01*
X122980571Y-93227918D02*
X123056762Y-93180299D01*
X123666285Y-93180299D02*
X123856761Y-94180299D01*
X123856761Y-94180299D02*
X124009142Y-93466013D01*
X124009142Y-93466013D02*
X124161523Y-94180299D01*
X124161523Y-94180299D02*
X124352000Y-93180299D01*
X124656762Y-93656489D02*
X124923428Y-93656489D01*
X125037714Y-94180299D02*
X124656762Y-94180299D01*
X124656762Y-94180299D02*
X124656762Y-93180299D01*
X124656762Y-93180299D02*
X125037714Y-93180299D01*
X125837715Y-94180299D02*
X125571048Y-93704108D01*
X125380572Y-94180299D02*
X125380572Y-93180299D01*
X125380572Y-93180299D02*
X125685334Y-93180299D01*
X125685334Y-93180299D02*
X125761524Y-93227918D01*
X125761524Y-93227918D02*
X125799619Y-93275537D01*
X125799619Y-93275537D02*
X125837715Y-93370775D01*
X125837715Y-93370775D02*
X125837715Y-93513632D01*
X125837715Y-93513632D02*
X125799619Y-93608870D01*
X125799619Y-93608870D02*
X125761524Y-93656489D01*
X125761524Y-93656489D02*
X125685334Y-93704108D01*
X125685334Y-93704108D02*
X125380572Y-93704108D01*
X122225047Y-85750680D02*
X122339333Y-85798299D01*
X122339333Y-85798299D02*
X122529809Y-85798299D01*
X122529809Y-85798299D02*
X122606000Y-85750680D01*
X122606000Y-85750680D02*
X122644095Y-85703060D01*
X122644095Y-85703060D02*
X122682190Y-85607822D01*
X122682190Y-85607822D02*
X122682190Y-85512584D01*
X122682190Y-85512584D02*
X122644095Y-85417346D01*
X122644095Y-85417346D02*
X122606000Y-85369727D01*
X122606000Y-85369727D02*
X122529809Y-85322108D01*
X122529809Y-85322108D02*
X122377428Y-85274489D01*
X122377428Y-85274489D02*
X122301238Y-85226870D01*
X122301238Y-85226870D02*
X122263143Y-85179251D01*
X122263143Y-85179251D02*
X122225047Y-85084013D01*
X122225047Y-85084013D02*
X122225047Y-84988775D01*
X122225047Y-84988775D02*
X122263143Y-84893537D01*
X122263143Y-84893537D02*
X122301238Y-84845918D01*
X122301238Y-84845918D02*
X122377428Y-84798299D01*
X122377428Y-84798299D02*
X122567905Y-84798299D01*
X122567905Y-84798299D02*
X122682190Y-84845918D01*
X122910762Y-84798299D02*
X123367905Y-84798299D01*
X123139333Y-85798299D02*
X123139333Y-84798299D01*
X123596476Y-85512584D02*
X123977429Y-85512584D01*
X123520286Y-85798299D02*
X123786953Y-84798299D01*
X123786953Y-84798299D02*
X124053619Y-85798299D01*
X124206000Y-84798299D02*
X124663143Y-84798299D01*
X124434571Y-85798299D02*
X124434571Y-84798299D01*
X124929810Y-84798299D02*
X124929810Y-85607822D01*
X124929810Y-85607822D02*
X124967905Y-85703060D01*
X124967905Y-85703060D02*
X125006000Y-85750680D01*
X125006000Y-85750680D02*
X125082191Y-85798299D01*
X125082191Y-85798299D02*
X125234572Y-85798299D01*
X125234572Y-85798299D02*
X125310762Y-85750680D01*
X125310762Y-85750680D02*
X125348857Y-85703060D01*
X125348857Y-85703060D02*
X125386953Y-85607822D01*
X125386953Y-85607822D02*
X125386953Y-84798299D01*
X125729809Y-85750680D02*
X125844095Y-85798299D01*
X125844095Y-85798299D02*
X126034571Y-85798299D01*
X126034571Y-85798299D02*
X126110762Y-85750680D01*
X126110762Y-85750680D02*
X126148857Y-85703060D01*
X126148857Y-85703060D02*
X126186952Y-85607822D01*
X126186952Y-85607822D02*
X126186952Y-85512584D01*
X126186952Y-85512584D02*
X126148857Y-85417346D01*
X126148857Y-85417346D02*
X126110762Y-85369727D01*
X126110762Y-85369727D02*
X126034571Y-85322108D01*
X126034571Y-85322108D02*
X125882190Y-85274489D01*
X125882190Y-85274489D02*
X125806000Y-85226870D01*
X125806000Y-85226870D02*
X125767905Y-85179251D01*
X125767905Y-85179251D02*
X125729809Y-85084013D01*
X125729809Y-85084013D02*
X125729809Y-84988775D01*
X125729809Y-84988775D02*
X125767905Y-84893537D01*
X125767905Y-84893537D02*
X125806000Y-84845918D01*
X125806000Y-84845918D02*
X125882190Y-84798299D01*
X125882190Y-84798299D02*
X126072667Y-84798299D01*
X126072667Y-84798299D02*
X126186952Y-84845918D01*
D11*
X132296552Y-91419564D02*
X132963219Y-91181469D01*
X132963219Y-91181469D02*
X132296552Y-90943374D01*
X132963219Y-90038612D02*
X132963219Y-90610040D01*
X132963219Y-90324326D02*
X131963219Y-90324326D01*
X131963219Y-90324326D02*
X132106076Y-90419564D01*
X132106076Y-90419564D02*
X132201314Y-90514802D01*
X132201314Y-90514802D02*
X132248933Y-90610040D01*
X132867980Y-89610040D02*
X132915600Y-89562421D01*
X132915600Y-89562421D02*
X132963219Y-89610040D01*
X132963219Y-89610040D02*
X132915600Y-89657659D01*
X132915600Y-89657659D02*
X132867980Y-89610040D01*
X132867980Y-89610040D02*
X132963219Y-89610040D01*
X131963219Y-88943374D02*
X131963219Y-88848136D01*
X131963219Y-88848136D02*
X132010838Y-88752898D01*
X132010838Y-88752898D02*
X132058457Y-88705279D01*
X132058457Y-88705279D02*
X132153695Y-88657660D01*
X132153695Y-88657660D02*
X132344171Y-88610041D01*
X132344171Y-88610041D02*
X132582266Y-88610041D01*
X132582266Y-88610041D02*
X132772742Y-88657660D01*
X132772742Y-88657660D02*
X132867980Y-88705279D01*
X132867980Y-88705279D02*
X132915600Y-88752898D01*
X132915600Y-88752898D02*
X132963219Y-88848136D01*
X132963219Y-88848136D02*
X132963219Y-88943374D01*
X132963219Y-88943374D02*
X132915600Y-89038612D01*
X132915600Y-89038612D02*
X132867980Y-89086231D01*
X132867980Y-89086231D02*
X132772742Y-89133850D01*
X132772742Y-89133850D02*
X132582266Y-89181469D01*
X132582266Y-89181469D02*
X132344171Y-89181469D01*
X132344171Y-89181469D02*
X132153695Y-89133850D01*
X132153695Y-89133850D02*
X132058457Y-89086231D01*
X132058457Y-89086231D02*
X132010838Y-89038612D01*
X132010838Y-89038612D02*
X131963219Y-88943374D01*
%TO.C,R3*%
D12*
X117321064Y-93753000D02*
X116866936Y-93753000D01*
X117321064Y-95223000D02*
X116866936Y-95223000D01*
%TO.C,TP1*%
X114492000Y-93726000D02*
G75*
G02*
X113092000Y-93726000I-700000J0D01*
G01*
X113092000Y-93726000D02*
G75*
G02*
X114492000Y-93726000I700000J0D01*
G01*
%TO.C,R2*%
X120877064Y-89181000D02*
X120422936Y-89181000D01*
X120877064Y-90651000D02*
X120422936Y-90651000D01*
%TO.C,R1*%
X120877064Y-91213000D02*
X120422936Y-91213000D01*
X120877064Y-92683000D02*
X120422936Y-92683000D01*
%TO.C,C1*%
X119153000Y-86860748D02*
X119153000Y-87383252D01*
X120623000Y-86860748D02*
X120623000Y-87383252D01*
%TO.C,USB1*%
D13*
X109683000Y-85416000D02*
X114683000Y-85416000D01*
X114683000Y-94416000D01*
X109683000Y-94416000D01*
X109683000Y-85416000D01*
%TO.C,D2*%
D12*
X122521000Y-86162000D02*
X122521000Y-88082000D01*
X122521000Y-88082000D02*
X125206000Y-88082000D01*
X125206000Y-86162000D02*
X122521000Y-86162000D01*
%TO.C,D1*%
X122521000Y-90988000D02*
X122521000Y-92908000D01*
X122521000Y-92908000D02*
X125206000Y-92908000D01*
X125206000Y-90988000D02*
X122521000Y-90988000D01*
%TO.C,U1*%
X115484000Y-88560000D02*
X115684000Y-88560000D01*
X115484000Y-91780000D02*
X115484000Y-88560000D01*
X115684000Y-91780000D02*
X115484000Y-91780000D01*
X118504000Y-88560000D02*
X118704000Y-88560000D01*
X118704000Y-88560000D02*
X118704000Y-91780000D01*
X118704000Y-91780000D02*
X118504000Y-91780000D01*
X115684000Y-92330000D02*
X115354000Y-92570000D01*
X115354000Y-92090000D01*
X115684000Y-92330000D01*
G36*
X115684000Y-92330000D02*
G01*
X115354000Y-92570000D01*
X115354000Y-92090000D01*
X115684000Y-92330000D01*
G37*
%TO.C,C2*%
X117355252Y-85117000D02*
X116832748Y-85117000D01*
X117355252Y-86587000D02*
X116832748Y-86587000D01*
%TO.C,TP2*%
X112460000Y-93726000D02*
G75*
G02*
X111060000Y-93726000I-700000J0D01*
G01*
X111060000Y-93726000D02*
G75*
G02*
X112460000Y-93726000I700000J0D01*
G01*
%TO.C,SW1*%
X126058000Y-88212000D02*
X126548000Y-87722000D01*
X126058000Y-91112000D02*
X126058000Y-88212000D01*
X126058000Y-91112000D02*
X126548000Y-91602000D01*
X129818000Y-86942000D02*
X127738000Y-86942000D01*
X129818000Y-92382000D02*
X127738000Y-92382000D01*
X131498000Y-88212000D02*
X131008000Y-87722000D01*
X131498000Y-91112000D02*
X131008000Y-91602000D01*
X131498000Y-91112000D02*
X131498000Y-88212000D01*
%TD*%
M02*
